<svg xmlns="http://www.w3.org/2000/svg" width="45" height="45" viewBox="0 0 45 45">
    <defs>
        <linearGradient id="a" x1="2.816%" x2="99.025%" y1=".744%" y2="99.004%">
            <stop offset="0%" stop-color="#05A2B8"/>
            <stop offset="100%" stop-color="#70D3FD"/>
        </linearGradient>
    </defs>
    <g fill="none" fill-rule="evenodd">
        <rect width="45" height="45" fill="url(#a)" rx="22.5"/>
        <path fill="#FFF" d="M22.5 12.6l8.1 3.6v5.4c0 2.142-.639 4.221-1.728 5.985l-2.61-2.61a4.506 4.506 0 0 0-.576-5.661 4.503 4.503 0 0 0-6.363 0 4.503 4.503 0 0 0 0 6.363 4.494 4.494 0 0 0 5.661.576l2.808 2.808C26.397 30.69 24.57 31.896 22.5 32.4c-4.644-1.134-8.1-5.805-8.1-10.8v-5.4l8.1-3.6zm0 7.2a2.7 2.7 0 1 1 0 5.4 2.7 2.7 0 0 1 0-5.4z"/>
    </g>
</svg>
